<svg width="80" height="80" viewBox="0 0 80 80" fill="none" xmlns="http://www.w3.org/2000/svg">
<g clip-path="url(#clip0_34_51)">
<path d="M56.4199 0.00411101C55.4199 0.024891 54.4079 0.109031 53.3859 0.254511C48.5639 0.933511 44.3199 2.97051 40.9939 6.65651C37.8599 10.1485 36.2679 14.3205 35.9779 19.0245C35.7841 22.4025 36.2007 25.6045 37.4061 28.5765C31.1921 28.5705 24.9781 28.535 18.7641 28.5805C17.7033 28.5805 17.4623 28.2407 17.4623 27.2221V2.72211C17.4623 1.75211 16.9957 1.26691 16.0635 1.26691C12.6875 1.26691 9.26551 1.36383 5.84151 1.26691C4.68431 1.21835 4.44271 1.60631 4.44271 2.67331V21.1053H4.49091V39.5373C4.49091 40.9925 4.53931 40.9925 5.93771 40.9925H13.9157C11.1877 42.1945 8.76971 43.9665 6.77571 46.4885C3.11171 51.1445 2.00171 56.5765 2.67771 62.3985C3.97971 73.1185 12.8517 80.5885 23.4977 79.9565C28.1257 79.6655 32.3697 78.3557 35.8897 75.1545C37.1717 73.9675 38.2197 72.6885 39.0877 71.3405C39.9411 72.5747 40.9617 73.7145 42.1697 74.7405C47.4257 79.2505 53.5017 80.7545 60.2517 79.5905C76.8397 76.7765 80.9917 58.9705 73.9457 48.0105V48.0587C71.1937 43.7747 67.4617 41.2647 63.1017 40.0007C67.1917 38.8217 70.7077 36.6487 73.3857 33.0827C77.0497 28.1347 78.1597 22.5567 77.0977 16.5427L77.1465 16.5914C76.1821 11.0134 73.4325 6.55143 68.6605 3.44743C64.8605 1.00343 60.7425 -0.094569 56.4085 -0.00456899L56.4199 0.00411101ZM56.1637 11.8801C57.2799 11.8961 58.4197 12.1511 59.5597 12.6239C62.5977 13.8365 64.0917 16.3579 64.5257 19.5599C64.5737 20.0449 64.5743 20.4813 64.6225 20.9663C64.6225 25.2823 62.3085 28.6303 58.6425 29.6483H58.6907C53.1947 31.1519 48.1787 27.3683 47.9367 21.5963C47.8403 18.5883 48.5641 15.9203 50.8787 13.8843C52.5061 12.4899 54.3037 11.8521 56.1637 11.8801ZM40.4637 33.6601C43.0997 36.8501 46.3197 38.8581 49.9777 39.9441C45.8037 41.1543 42.2457 43.4461 39.5297 47.1521C39.4017 47.3294 39.2835 47.5093 39.1621 47.6885C37.3669 44.7505 34.9861 42.4385 31.9101 40.9285C34.2821 40.9185 36.6541 40.9067 39.0181 40.9067C40.4165 40.9067 40.4643 40.8582 40.4643 39.4515L40.4637 33.6601ZM23.1757 49.6221C26.2677 49.5742 28.4817 51.1941 30.0197 53.9221C30.3573 54.5041 30.5981 54.4067 31.0321 54.1645C33.1501 53.0427 35.2941 51.9205 37.4261 50.8005C36.7207 52.3847 36.2423 54.0285 35.9643 55.7185H23.0283C22.4015 55.7185 22.1601 55.9122 22.1601 56.5909V65.2729C22.1601 66.0003 22.4011 66.1941 23.1245 66.1941H29.9705C29.9745 66.5137 29.8089 66.6931 29.6343 66.8249C26.9343 69.4929 22.3523 70.1229 19.0263 68.2801C14.8303 66.0001 12.9983 60.4701 14.8303 55.6201C16.1805 52.0801 18.6883 49.9941 22.5443 49.6541C22.7583 49.6361 22.9695 49.6253 23.1757 49.6221ZM56.0157 50.9111C60.5637 50.8356 64.4817 54.5291 64.3697 59.9111C64.3697 63.8891 62.4409 67.0411 59.2577 68.3511C53.7137 70.5831 47.9257 66.7503 47.6857 60.6391C47.5411 56.9051 48.6503 53.6551 52.1217 51.9091C53.4191 51.2513 54.7417 50.9323 56.0157 50.9111Z" fill="#1890FF"/>
</g>
<defs>
<clipPath id="clip0_34_51">
<rect width="80" height="80" fill="white"/>
</clipPath>
</defs>
</svg>
