<svg width="60" height="60" viewBox="0 0 60 60" fill="none" xmlns="http://www.w3.org/2000/svg">
<g clip-path="url(#clip0_20_113)">
<path d="M42.3151 0.00307563C41.5651 0.0186606 40.8061 0.0817656 40.0396 0.190876C36.4231 0.700126 33.2401 2.22788 30.7456 4.99238C28.3951 7.61138 27.2011 10.7404 26.9836 14.2684C26.8382 16.8019 27.1507 19.2034 28.0547 21.4324C23.3942 21.4279 18.7337 21.4012 14.0732 21.4354C13.2776 21.4354 13.0969 21.1805 13.0969 20.4166V2.04158C13.0969 1.31408 12.7469 0.950176 12.0478 0.950176C9.51576 0.950176 6.94925 1.02287 4.38125 0.950176C3.51335 0.913756 3.33215 1.20473 3.33215 2.00498V15.829H3.3683V29.653C3.3683 30.7444 3.4046 30.7444 4.4534 30.7444H10.4369C8.3909 31.6459 6.5774 32.9749 5.0819 34.8664C2.3339 38.3584 1.5014 42.4324 2.0084 46.7989C2.9849 54.8389 9.63891 60.4414 17.6234 59.9674C21.0944 59.7491 24.2774 58.7668 26.9174 56.3659C27.8789 55.4756 28.6649 54.5164 29.3159 53.5054C29.956 54.431 30.7214 55.2859 31.6274 56.0554C35.5694 59.4379 40.1264 60.5659 45.1889 59.6929C57.6299 57.5824 60.7439 44.2279 55.4594 36.0079V36.044C53.3954 32.831 50.5964 30.9485 47.3264 30.0005C50.3939 29.1162 53.0309 27.4865 55.0394 24.812C57.7874 21.101 58.6199 16.9175 57.8234 12.407L57.86 12.4436C57.1367 8.26007 55.0745 4.91357 51.4955 2.58557C48.6455 0.752566 45.557 -0.0709344 42.3065 -0.00343437L42.3151 0.00307563ZM42.1229 8.91008C42.9601 8.92206 43.8149 9.11333 44.6699 9.46793C46.9484 10.3774 48.0689 12.2684 48.3944 14.6699C48.4304 15.0337 48.4309 15.361 48.467 15.7247C48.467 18.9617 46.7315 21.4727 43.982 22.2362H44.0182C39.8962 23.3639 36.1342 20.5262 35.9527 16.1972C35.8804 13.9412 36.4232 11.9402 38.1592 10.4132C39.3797 9.36742 40.7279 8.88908 42.1229 8.91008ZM30.3479 25.2451C32.3249 27.6376 34.7399 29.1436 37.4834 29.9581C34.3529 30.8657 31.6844 32.5846 29.6474 35.3641C29.5514 35.497 29.4628 35.632 29.3717 35.7664C28.0253 33.5629 26.2397 31.8289 23.9327 30.6964C25.7117 30.6889 27.4907 30.68 29.2637 30.68C30.3125 30.68 30.3484 30.6436 30.3484 29.5886L30.3479 25.2451ZM17.3819 37.2166C19.7009 37.1806 21.3614 38.3956 22.5149 40.4416C22.7681 40.8781 22.9487 40.805 23.2742 40.6234C24.8627 39.782 26.4707 38.9404 28.0697 38.1004C27.5407 39.2885 27.1819 40.5214 26.9734 41.7889H17.2714C16.8013 41.7889 16.6202 41.9341 16.6202 42.4432V48.9547C16.6202 49.5002 16.801 49.6456 17.3435 49.6456H22.478C22.481 49.8853 22.3568 50.0198 22.2259 50.1187C20.2009 52.1197 16.7644 52.5922 14.2699 51.2101C11.1229 49.5001 9.74886 45.3526 11.1229 41.7151C12.1355 39.0601 14.0164 37.4956 16.9084 37.2406C17.0689 37.2271 17.2273 37.219 17.3819 37.2166ZM42.0119 38.1833C45.4229 38.1267 48.3614 40.8968 48.2774 44.9333C48.2774 47.9168 46.8308 50.2808 44.4434 51.2633C40.2854 52.9373 35.9444 50.0627 35.7644 45.4793C35.656 42.6788 36.4879 40.2413 39.0914 38.9318C40.0645 38.4385 41.0564 38.1992 42.0119 38.1833Z" fill="#1890FF"/>
</g>
<defs>
<clipPath id="clip0_20_113">
<rect width="60" height="60" fill="white"/>
</clipPath>
</defs>
</svg>
